<?xml version="1.0" encoding="UTF-8"?>
<svg id="National_Museum_of_Asian_Art_Smithsonian" xmlns="http://www.w3.org/2000/svg" viewBox="0 0 542 202">
  <defs>
    <style>
      .cls-1 {
        fill: #101820;
      }

      .cls-2 {
        stroke: #000;
        stroke-miterlimit: 10;
        stroke-width: .5px;
      }

      .cls-3 {
        fill: #fff;
      }
    </style>
  </defs>
  <g>
    <path class="cls-2" d="M38.64,23.3h2.3s19.69,27.37,19.69,27.37v-27.37h2.16v30.68h-2.3s-19.69-27-19.69-27v27h-2.16v-30.68Z"/>
    <path class="cls-2" d="M80.68,23.3h2.21s12.56,30.68,12.56,30.68h-2.53s-4-9.89-4-9.89h-14.44s-3.96,9.89-3.96,9.89h-2.39s12.56-30.68,12.56-30.68ZM88.09,42.03l-6.39-15.92-6.39,15.92h12.79Z"/>
    <path class="cls-2" d="M104.6,25.28h-11.91v-1.98h26.04v1.98h-11.91s0,28.7,0,28.7h-2.21v-28.7Z"/>
    <path class="cls-2" d="M124.29,23.3h2.21v30.68h-2.21v-30.68Z"/>
    <path class="cls-2" d="M148.71,54.72c-2.21,0-4.24-.41-6.09-1.24-1.86-.83-3.46-1.96-4.81-3.4-1.35-1.44-2.41-3.14-3.17-5.08-.77-1.95-1.15-4.05-1.15-6.32s.38-4.34,1.15-6.3c.77-1.96,1.82-3.67,3.17-5.13,1.35-1.46,2.95-2.6,4.81-3.43,1.85-.83,3.89-1.24,6.09-1.24s4.24.41,6.1,1.24c1.85.83,3.46,1.97,4.81,3.43,1.35,1.46,2.41,3.17,3.17,5.13.77,1.96,1.15,4.06,1.15,6.3s-.38,4.38-1.15,6.32c-.77,1.95-1.82,3.64-3.17,5.08-1.35,1.44-2.95,2.58-4.81,3.4-1.86.83-3.89,1.24-6.1,1.24ZM148.71,52.65c1.93,0,3.7-.36,5.29-1.08,1.59-.72,2.95-1.72,4.07-2.99,1.12-1.27,1.98-2.76,2.6-4.46.61-1.7.92-3.52.92-5.45s-.31-3.76-.92-5.47c-.61-1.72-1.48-3.2-2.6-4.46-1.12-1.26-2.48-2.25-4.07-2.99-1.59-.74-3.36-1.1-5.29-1.1s-3.7.37-5.29,1.1c-1.6.74-2.95,1.73-4.07,2.99-1.12,1.26-1.99,2.75-2.6,4.46-.61,1.72-.92,3.54-.92,5.47s.31,3.75.92,5.45c.61,1.7,1.48,3.19,2.6,4.46,1.12,1.27,2.48,2.27,4.07,2.99,1.59.72,3.36,1.08,5.29,1.08Z"/>
    <path class="cls-2" d="M170.93,23.3h2.3s19.69,27.37,19.69,27.37v-27.37h2.16v30.68h-2.3s-19.69-27-19.69-27v27h-2.16v-30.68Z"/>
    <path class="cls-2" d="M212.97,23.3h2.21s12.56,30.68,12.56,30.68h-2.53s-4-9.89-4-9.89h-14.44s-3.96,9.89-3.96,9.89h-2.39s12.56-30.68,12.56-30.68ZM220.38,42.03l-6.39-15.92-6.39,15.92h12.79Z"/>
    <path class="cls-2" d="M233.08,23.3h2.21v28.61s17.39,0,17.39,0v2.07h-19.6v-30.68Z"/>
    <path class="cls-2" d="M272.31,23.3h2.39s10.67,18.22,10.67,18.22l10.9-18.22h2.12s1.38,30.68,1.38,30.68h-2.21s-1.06-27.23-1.06-27.23l-10.58,17.57h-1.43s-10.3-17.53-10.3-17.53l-1.06,27.19h-2.21s1.38-30.68,1.38-30.68Z"/>
    <path class="cls-2" d="M307.55,23.3h2.21v17.3c0,1.75.14,3.36.41,4.83.28,1.47.77,2.74,1.49,3.82.72,1.07,1.69,1.91,2.92,2.51,1.23.6,2.79.9,4.69.9s3.46-.3,4.69-.9c1.23-.6,2.2-1.43,2.92-2.51.72-1.07,1.22-2.35,1.5-3.82.28-1.47.41-3.08.41-4.83v-17.3h2.21v18.45c0,1.81-.19,3.5-.58,5.08-.38,1.58-1.03,2.95-1.93,4.12-.91,1.17-2.11,2.09-3.61,2.76-1.5.67-3.37,1.01-5.61,1.01s-4.11-.34-5.61-1.01c-1.5-.67-2.71-1.59-3.61-2.76-.9-1.17-1.55-2.54-1.93-4.12-.38-1.58-.57-3.27-.57-5.08v-18.45Z"/>
    <path class="cls-2" d="M338.97,48.37c1.04,1.26,2.29,2.29,3.75,3.08,1.46.8,3.23,1.2,5.31,1.2,1.2,0,2.29-.14,3.29-.41,1-.28,1.85-.68,2.58-1.22.72-.54,1.28-1.21,1.68-2.02.4-.81.6-1.75.6-2.83,0-1.13-.22-2.1-.67-2.9-.45-.8-1.04-1.46-1.77-2-.74-.54-1.57-.97-2.51-1.31-.94-.34-1.88-.64-2.83-.92-1.17-.31-2.33-.65-3.5-1.04-1.17-.38-2.21-.89-3.13-1.52s-1.66-1.43-2.23-2.39c-.57-.96-.85-2.21-.85-3.75,0-1.04.21-2.04.64-2.99.43-.95,1.05-1.78,1.86-2.48.81-.71,1.81-1.26,2.99-1.68,1.18-.41,2.52-.62,4.02-.62,1.29,0,2.43.14,3.43.41s1.87.62,2.62,1.03c.75.41,1.38.87,1.89,1.36.51.49.93.97,1.26,1.43l-1.56,1.33c-.28-.37-.63-.76-1.06-1.17-.43-.41-.95-.8-1.56-1.15-.61-.35-1.34-.64-2.19-.87-.84-.23-1.82-.34-2.92-.34-1.26,0-2.34.17-3.24.51-.9.34-1.65.78-2.23,1.33-.58.55-1.01,1.17-1.29,1.86-.28.69-.41,1.4-.41,2.14,0,1.1.25,2.02.76,2.74.51.72,1.17,1.32,2,1.79.83.47,1.76.87,2.78,1.17,1.03.31,2.06.6,3.1.88,1.07.28,2.15.62,3.22,1.04,1.07.41,2.03.96,2.87,1.66.84.69,1.53,1.56,2.07,2.6.54,1.04.8,2.33.8,3.87,0,1.32-.28,2.51-.83,3.56s-1.3,1.96-2.23,2.69c-.94.74-2.05,1.3-3.34,1.7s-2.67.6-4.14.6c-1.29,0-2.48-.14-3.59-.41-1.1-.28-2.11-.63-3.01-1.08-.9-.44-1.7-.95-2.39-1.52-.69-.57-1.25-1.16-1.68-1.77l1.61-1.56Z"/>
    <path class="cls-2" d="M365.56,23.3h18.4v2.07h-16.19s0,11.59,0,11.59h12.65v2.07h-12.65s0,12.88,0,12.88h17.39v2.07h-19.6v-30.68Z"/>
    <path class="cls-2" d="M391.41,23.3h2.21v17.3c0,1.75.14,3.36.41,4.83.28,1.47.77,2.74,1.49,3.82.72,1.07,1.69,1.91,2.92,2.51,1.23.6,2.79.9,4.69.9s3.46-.3,4.69-.9c1.23-.6,2.2-1.43,2.92-2.51.72-1.07,1.22-2.35,1.5-3.82.28-1.47.41-3.08.41-4.83v-17.3h2.21v18.45c0,1.81-.19,3.5-.58,5.08-.38,1.58-1.03,2.95-1.93,4.12-.91,1.17-2.11,2.09-3.61,2.76-1.5.67-3.37,1.01-5.61,1.01s-4.11-.34-5.61-1.01c-1.5-.67-2.71-1.59-3.61-2.76-.91-1.17-1.55-2.54-1.93-4.12-.38-1.58-.57-3.27-.57-5.08v-18.45Z"/>
    <path class="cls-2" d="M424.02,23.3h2.39s10.67,18.22,10.67,18.22l10.9-18.22h2.12s1.38,30.68,1.38,30.68h-2.21s-1.06-27.23-1.06-27.23l-10.58,17.57h-1.43s-10.3-17.53-10.3-17.53l-1.06,27.19h-2.21s1.38-30.68,1.38-30.68Z"/>
    <path class="cls-2" d="M481.48,54.54c-1.5,0-2.91-.29-4.23-.87-1.32-.58-2.48-1.38-3.47-2.39-1-1.01-1.78-2.19-2.35-3.54-.57-1.35-.85-2.79-.85-4.32s.28-2.97.85-4.32,1.35-2.53,2.35-3.54c1-1.01,2.15-1.81,3.47-2.39,1.32-.58,2.73-.87,4.23-.87s2.91.29,4.23.87c1.32.58,2.48,1.38,3.47,2.39,1,1.01,1.78,2.19,2.35,3.54s.85,2.79.85,4.32-.28,2.98-.85,4.32c-.57,1.35-1.35,2.53-2.35,3.54-1,1.01-2.15,1.81-3.47,2.39-1.32.58-2.73.87-4.23.87ZM481.48,52.65c1.23,0,2.38-.25,3.45-.74,1.07-.49,2-1.15,2.78-1.98s1.39-1.8,1.84-2.92c.44-1.12.67-2.32.67-3.61,0-1.23-.23-2.4-.69-3.52s-1.08-2.11-1.86-2.97c-.78-.86-1.71-1.53-2.78-2.02-1.07-.49-2.21-.74-3.4-.74-1.26,0-2.42.25-3.47.74-1.06.49-1.98,1.15-2.76,1.98-.78.83-1.4,1.8-1.84,2.92s-.67,2.32-.67,3.61.23,2.44.69,3.54,1.08,2.09,1.86,2.94c.78.86,1.71,1.54,2.78,2.03s2.21.74,3.4.74Z"/>
    <path class="cls-2" d="M499.87,34.76h-4.23v-1.93h4.23s0-2.44,0-2.44c0-2.51.56-4.45,1.68-5.79,1.12-1.35,2.74-2.02,4.85-2.02,1.38,0,2.52.23,3.43.69.9.46,1.66,1.04,2.28,1.75l-1.33,1.29c-.64-.64-1.29-1.11-1.93-1.4-.64-.29-1.4-.44-2.25-.44-.68,0-1.3.09-1.86.28-.57.18-1.06.53-1.47,1.03-.41.51-.74,1.2-.97,2.07-.23.87-.34,2-.34,3.38v1.61s6.99,0,6.99,0v1.93h-6.99s0,19.23,0,19.23h-2.07v-19.23Z"/>
    <path d="M50.04,69.97h10.02s14.64,40.02,14.64,40.02h-9.9s-3.06-9.18-3.06-9.18h-14.1s-3.06,9.18-3.06,9.18h-9.48s14.94-40.02,14.94-40.02ZM59.58,93.79l-4.86-15.12-4.98,15.12h9.84Z"/>
    <path d="M81.18,98.05c.52.56,1.13,1.13,1.83,1.71.7.58,1.48,1.11,2.34,1.59.86.48,1.8.87,2.82,1.17,1.02.3,2.11.45,3.27.45.68,0,1.36-.1,2.04-.3.68-.2,1.3-.49,1.86-.87.56-.38,1.01-.84,1.35-1.38.34-.54.51-1.15.51-1.83,0-1.48-.72-2.63-2.16-3.45-1.44-.82-3.72-1.63-6.84-2.43-1.52-.36-2.93-.88-4.23-1.56-1.3-.68-2.42-1.5-3.36-2.46-.94-.96-1.67-2.06-2.19-3.3-.52-1.24-.78-2.62-.78-4.14,0-1.68.3-3.26.9-4.74.6-1.48,1.51-2.79,2.73-3.93,1.22-1.14,2.74-2.04,4.56-2.7,1.82-.66,3.97-.99,6.45-.99,2.04,0,3.84.21,5.4.63s2.89.92,3.99,1.5c1.1.58,2,1.18,2.7,1.8.7.62,1.23,1.11,1.59,1.47l-5.22,5.76c-.44-.36-.95-.75-1.53-1.17-.58-.42-1.23-.81-1.95-1.17-.72-.36-1.51-.66-2.37-.9-.86-.24-1.77-.36-2.73-.36-.64,0-1.27.1-1.89.3-.62.2-1.18.47-1.68.81-.5.34-.9.74-1.2,1.2-.3.46-.45.95-.45,1.47,0,1.36.72,2.46,2.16,3.3s3.42,1.54,5.94,2.1c1.48.36,2.93.85,4.35,1.47,1.42.62,2.69,1.43,3.81,2.43,1.12,1,2.02,2.23,2.7,3.69.68,1.46,1.02,3.23,1.02,5.31,0,1.8-.4,3.46-1.2,4.98-.8,1.52-1.89,2.84-3.27,3.96-1.38,1.12-3,1.99-4.86,2.61s-3.87.93-6.03.93c-2,0-3.82-.19-5.46-.57-1.64-.38-3.12-.88-4.44-1.5-1.32-.62-2.51-1.33-3.57-2.13-1.06-.8-1.97-1.62-2.73-2.46l5.82-6.3Z"/>
    <path d="M112.14,69.97h9.06v40.02h-9.06v-40.02Z"/>
    <path d="M139.86,69.97h10.02s14.64,40.02,14.64,40.02h-9.9s-3.06-9.18-3.06-9.18h-14.1s-3.06,9.18-3.06,9.18h-9.48s14.94-40.02,14.94-40.02ZM149.4,93.79l-4.86-15.12-4.98,15.12h9.84Z"/>
    <path d="M168.24,69.97h8.64s17.34,25.98,17.34,25.98v-25.98h8.94v40.02h-8.22s-17.76-26.46-17.76-26.46v26.46h-8.94v-40.02Z"/>
    <path d="M233.04,69.97h10.02s14.64,40.02,14.64,40.02h-9.9s-3.06-9.18-3.06-9.18h-14.1s-3.06,9.18-3.06,9.18h-9.48s14.94-40.02,14.94-40.02ZM242.58,93.79l-4.86-15.12-4.98,15.12h9.84Z"/>
    <path d="M261.18,69.97h14.88c2.32,0,4.36.33,6.12.99,1.76.66,3.23,1.56,4.41,2.7,1.18,1.14,2.06,2.47,2.64,3.99.58,1.52.87,3.14.87,4.86,0,2.6-.57,4.87-1.71,6.81-1.14,1.94-2.75,3.49-4.83,4.65l8.88,16.02h-9.96s-7.44-14.7-7.44-14.7h-5.04s0,14.7,0,14.7h-8.82v-40.02ZM275.58,88.03c1.68,0,3-.5,3.96-1.5.96-1,1.44-2.26,1.44-3.78,0-1.64-.48-2.94-1.44-3.9-.96-.96-2.28-1.44-3.96-1.44h-5.58s0,10.62,0,10.62h5.58Z"/>
    <path d="M305.88,77.95h-12.96v-7.98h34.98v7.98h-12.9s0,32.04,0,32.04h-9.12v-32.04Z"/>
  </g>
  <g>
    <path d="M112.76,149.51c-.61-2.16-1.49-4.49-4.42-4.49-2.6,0-3.75,1.89-3.75,3.71,0,2.47,1.62,3.61,4.29,5,2.63,1.35,5.84,2.94,5.84,6.72,0,3.55-3.01,6.38-7.5,6.38-1.38,0-2.46-.27-3.31-.51-.84-.3-1.35-.54-1.65-.71-.27-.71-.71-3.61-.91-5.23l.98-.24c.54,2.06,2.06,5.47,5.54,5.47,2.53,0,4.05-1.59,4.05-4.05s-1.86-3.68-4.39-5.03c-2.16-1.15-5.57-2.84-5.57-6.65,0-3.24,2.6-6.01,6.96-6.01,1.55,0,2.97.37,4.25.78.13,1.22.3,2.53.57,4.66l-.98.2Z"/>
    <path d="M135.42,166.33v-.88c1.99-.2,2.36-.34,2.36-2.73v-5.64c0-2.4-.84-3.92-2.97-3.92-1.22,0-2.5.68-3.78,1.76.07.41.1.78.1,1.42v6.58c0,2.13.3,2.33,2.16,2.53v.88h-7.23v-.88c2.09-.2,2.4-.37,2.4-2.6v-5.81c0-2.5-.88-3.88-2.94-3.88-1.35,0-2.67.91-3.68,1.76v7.93c0,2.19.27,2.4,1.92,2.6v.88h-7.12v-.88c2.23-.2,2.53-.41,2.53-2.6v-6.99c0-2.16-.1-2.33-2.06-2.63v-.78c1.49-.27,3.21-.71,4.69-1.38v2.73c.71-.47,1.45-1.08,2.46-1.72.88-.54,1.69-.91,2.77-.91,1.62,0,3.07,1.01,3.75,2.77.98-.74,1.96-1.38,2.8-1.89.71-.47,1.59-.88,2.53-.88,2.63,0,4.29,1.86,4.29,5.17v6.52c0,2.26.27,2.4,2.19,2.6v.88h-7.19Z"/>
    <path d="M144.46,166.33v-.88c2.13-.2,2.36-.41,2.36-2.7v-6.96c0-2.09-.1-2.23-2.13-2.57v-.81c1.72-.27,3.31-.71,4.79-1.32v11.65c0,2.3.24,2.5,2.4,2.7v.88h-7.43ZM146.25,146.51c0-1.01.81-1.76,1.72-1.76s1.69.74,1.69,1.76c0,.91-.74,1.72-1.72,1.72-.88,0-1.69-.81-1.69-1.72Z"/>
    <path d="M159.79,166.3c-.57.3-1.11.44-1.42.44-2.13,0-3.31-1.35-3.31-4.02v-9.83h-2.33l-.14-.34.91-.98h1.55v-2.46l2.19-2.23.47.07v4.63h3.82c.3.34.2,1.08-.2,1.32h-3.61v8.68c0,2.73,1.11,3.24,1.96,3.24s1.62-.34,2.09-.57l.3.88-2.3,1.18Z"/>
    <path d="M172.73,166.33v-.88c1.96-.2,2.23-.41,2.23-2.6v-5.61c0-2.77-1.05-4.15-3.31-4.15-1.28,0-2.57.64-3.51,1.72v8.04c0,2.16.17,2.4,2.16,2.6v.88h-7.16v-.88c2.03-.17,2.33-.37,2.33-2.6v-16.11c0-2.13-.07-2.3-2.3-2.5v-.78c1.62-.24,3.65-.78,4.96-1.18v11.35c1.18-1.22,3.01-2.47,4.83-2.47,2.73,0,4.66,1.72,4.66,5.77v5.91c0,2.23.24,2.43,2.23,2.6v.88h-7.12Z"/>
    <path d="M190.22,155.56c-.64-1.99-1.82-3.34-3.48-3.34-1.28,0-2.19,1.01-2.19,2.33,0,1.52,1.35,2.3,2.87,2.94,2.53,1.05,4.25,2.26,4.25,4.59,0,3.07-2.87,4.66-5.57,4.66-1.72,0-3.28-.64-3.88-1.15-.24-.47-.54-2.77-.54-3.98l.88-.17c.61,2.23,2.13,4.19,4.15,4.19,1.25,0,2.4-.95,2.4-2.36s-.98-2.3-2.67-3.07c-2.03-.95-4.22-2.06-4.22-4.66,0-2.36,2.03-4.36,5.13-4.36,1.38,0,2.3.3,3.01.57.27.78.64,2.77.74,3.61l-.88.2Z"/>
    <path d="M208.92,158.7c0,5.44-3.98,8.04-7.33,8.04-4.63,0-7.39-3.71-7.39-7.46,0-5.57,4.32-8.1,7.39-8.1,4.19,0,7.33,3.34,7.33,7.53ZM197.34,158.19c0,4.25,1.86,7.43,4.63,7.43,2.09,0,3.82-1.55,3.82-6.18,0-3.95-1.59-7.16-4.52-7.16-2.09,0-3.92,2.09-3.92,5.91Z"/>
    <path d="M220.41,166.33v-.88c1.99-.2,2.23-.47,2.23-2.8v-5.64c0-2.33-.81-3.85-3.07-3.85-1.35,0-2.67.84-3.68,1.72v7.93c0,2.3.2,2.43,2.2,2.63v.88h-7.33v-.88c2.3-.24,2.47-.41,2.47-2.63v-6.99c0-2.16-.2-2.26-2.03-2.6v-.78c1.62-.3,3.21-.71,4.69-1.38v2.7c.68-.51,1.42-1.01,2.26-1.59.94-.61,1.82-1.01,2.8-1.01,2.67,0,4.36,1.86,4.36,5.13v6.52c0,2.3.17,2.43,2.13,2.63v.88h-7.02Z"/>
    <path d="M229.32,166.33v-.88c2.13-.2,2.36-.41,2.36-2.7v-6.96c0-2.09-.1-2.23-2.13-2.57v-.81c1.72-.27,3.31-.71,4.79-1.32v11.65c0,2.3.24,2.5,2.4,2.7v.88h-7.43ZM231.11,146.51c0-1.01.81-1.76,1.72-1.76s1.69.74,1.69,1.76c0,.91-.74,1.72-1.72,1.72-.88,0-1.69-.81-1.69-1.72Z"/>
    <path d="M249.14,166.73c-.51,0-1.22-.3-1.59-.64-.44-.47-.64-.95-.81-1.52-1.35.91-2.97,2.16-3.98,2.16-2.4,0-4.05-1.99-4.05-4.12,0-1.65.88-2.7,2.74-3.34,2.03-.68,4.49-1.59,5.23-2.19v-.61c0-2.43-1.15-3.82-2.84-3.82-.68,0-1.18.27-1.52.68-.44.44-.74,1.18-1.01,2.23-.14.54-.51.78-.98.78-.61,0-1.49-.68-1.49-1.45,0-.51.44-.88,1.08-1.35.94-.68,3.14-1.99,5.06-2.36,1.01,0,2.03.3,2.77.91,1.18.98,1.52,2.36,1.52,4.12v6.28c0,1.52.61,2.03,1.18,2.03.41,0,.88-.17,1.22-.37l.34.88-2.87,1.72ZM246.68,158.23c-.71.37-2.33,1.08-3.04,1.42-1.32.61-2.06,1.25-2.06,2.47,0,1.76,1.35,2.6,2.4,2.6.88-.03,2.06-.61,2.7-1.22v-5.27Z"/>
    <path d="M262.55,166.33v-.88c1.99-.2,2.23-.47,2.23-2.8v-5.64c0-2.33-.81-3.85-3.07-3.85-1.35,0-2.67.84-3.68,1.72v7.93c0,2.3.2,2.43,2.2,2.63v.88h-7.33v-.88c2.3-.24,2.47-.41,2.47-2.63v-6.99c0-2.16-.2-2.26-2.03-2.6v-.78c1.62-.3,3.21-.71,4.69-1.38v2.7c.68-.51,1.42-1.01,2.26-1.59.94-.61,1.82-1.01,2.8-1.01,2.67,0,4.36,1.86,4.36,5.13v6.52c0,2.3.17,2.43,2.13,2.63v.88h-7.02Z"/>
  </g>
  <g>
    <path class="cls-1" d="M88.82,156.63c-.03,14.83-12.08,26.84-26.91,26.81-14.83-.03-26.84-12.08-26.81-26.91.03-14.83,11.08-26.84,25.91-26.81s27.84,12.08,27.81,26.91Z"/>
    <path class="cls-3" d="M78.15,162.05c-1.73-2.99-4.48-3.03-4.82-3.02,0,0,0,0,0,0l11.6-2.39-11.59-2.44h0c.12-.11,2.38-2.1,5.76-2.14,2.55-.03,4.76-3.15,3.36-5.55,0,0-.43,3.77-5.18,2.5-3.34-.89-5.32,1.03-5.55,1.27h0s6.51-9.9,6.51-9.9l-9.92,6.47s0,0,0,0c0-.15.19-3.16,2.56-5.58,1.78-1.83,1.14-5.6-1.55-6.3,0,0,2.36,2.96-1.89,5.43-2.99,1.74-3.03,4.48-3.03,4.82h0s-2.39-11.6-2.39-11.6l-2.44,11.59s0,0,0,0c-.1-.11-2.1-2.37-2.14-5.76-.03-2.55-3.15-4.76-5.55-3.36,0,0,3.77.43,2.5,5.18-.89,3.35,1.04,5.32,1.27,5.55h0s-9.9-6.51-9.9-6.51h0l5.27,8.08,1.2,1.84s0,0,0,0c-.1,0-3.14-.18-5.59-2.56-1.83-1.78-5.6-1.14-6.3,1.55,0,0,2.96-2.36,5.43,1.89,1.74,3,4.5,3.03,4.83,3.02,0,0,0,0,0,0l-11.6,2.39,11.59,2.44h0c-.08.07-2.35,2.1-5.76,2.14-2.55.03-4.76,3.15-3.36,5.55,0,0,.43-3.77,5.18-2.5,3.36.89,5.33-1.04,5.55-1.27,0,0,0,0,0,0l-6.51,9.89,9.92-6.47c0,.1-.18,3.14-2.56,5.59-1.78,1.83-1.14,5.59,1.55,6.3,0,0-2.36-2.96,1.89-5.43,3-1.74,3.03-4.5,3.02-4.83,0,0,0,0,0,0l2.39,11.59,2.44-11.58h0c.09.1,2.09,2.36,2.14,5.76.03,2.55,3.15,4.76,5.55,3.36,0,0-3.77-.42-2.5-5.18.89-3.35-1.03-5.32-1.27-5.55,0,0,0,0,0,0l9.89,6.51-3.42-5.24-3.05-4.68h0c.14,0,3.15.19,5.58,2.56,1.83,1.78,5.6,1.14,6.3-1.55,0,0-2.96,2.36-5.43-1.89Z"/>
  </g>
</svg>