<?xml version="1.0" encoding="utf-8"?>
<!-- Generator: Adobe Illustrator 28.0.0, SVG Export Plug-In . SVG Version: 6.00 Build 0)  -->
<svg version="1.1" id="Layer_1" xmlns="http://www.w3.org/2000/svg" xmlns:xlink="http://www.w3.org/1999/xlink" x="0px" y="0px"
	 viewBox="0 0 1000 287" style="enable-background:new 0 0 1000 287;" xml:space="preserve">
<g>
	<path d="M145.2,0c-13.3,16.1-28.1,31-44.3,44.3c16.1,13.3,31,28.1,44.3,44.3c13.3-16.1,28.1-31,44.3-44.3
		C173.4,31,158.5,16.1,145.2,0z"/>
	<path d="M145.2,99.4c-13.3,16.1-28.1,31-44.3,44.3c16.1,13.3,31,28.1,44.3,44.3c13.3-16.1,28.1-31,44.3-44.3
		C173.4,130.4,158.5,115.6,145.2,99.4z"/>
	<path d="M145.2,198.5c-13.3,16.1-28.1,31-44.3,44.3c16.1,13.3,31,28.1,44.3,44.3c13.3-16.1,28.1-31,44.3-44.3
		C173.4,229.4,158.5,214.6,145.2,198.5z"/>
	<path d="M44.3,0C31,16.1,16.1,31,0,44.3c16.1,13.3,31,28.1,44.3,44.3c13.3-16.1,28.1-31,44.3-44.3C72.4,31,57.6,16.1,44.3,0z"/>
	<path d="M245.1,0c-13.3,16.1-28.1,31-44.3,44.3c16.1,13.3,31,28.1,44.3,44.3c13.3-16.1,28.1-31,44.3-44.3
		C273.3,31,258.4,16.1,245.1,0z"/>
	<path d="M245.1,99.4c-13.3,16.1-28.1,31-44.3,44.3c16.1,13.3,31,28.1,44.3,44.3c13.3-16.1,28.1-31,44.3-44.3
		C273.3,130.4,258.4,115.6,245.1,99.4z"/>
	<path d="M245.1,198.4c-13.3,16.1-28.1,31-44.3,44.3c16.1,13.3,31,28.1,44.3,44.3c13.3-16.1,28.1-31,44.3-44.3
		C273.3,229.4,258.4,214.6,245.1,198.4z"/>
	<path d="M44.3,99.4C31,115.6,16.1,130.4,0,143.7C16.1,157,31,171.8,44.3,188c13.3-16.1,28.1-31,44.3-44.3
		C72.4,130.4,57.6,115.6,44.3,99.4z"/>
	<path d="M44.3,198.5C31,214.6,16.1,229.4,0,242.7C16.1,256,31,270.9,44.3,287c13.3-16.1,28.1-31,44.3-44.3
		C72.4,229.4,57.6,214.6,44.3,198.5z"/>
	<path d="M356.2,55.9L356.2,55.9c-8.5,0-13.9-4-15.2-11.4l-0.1-0.3h-6.5l0,0.4c1.2,10.2,9.6,16.8,21.6,16.8
		c11.9,0,20.1-6.8,20.1-15.7c0-7-4.9-11.2-16.5-14.2l-6.3-1.6c-7.7-2-10.9-3.6-10.9-8c0-5.1,5.2-8.8,12.4-8.8
		c7.2,0,11.9,2.9,13.7,8.3l0.1,0.3h6.3l-0.1-0.5c-1.9-8.3-9.5-13.5-20-13.5c-10.4,0-18.7,6.3-18.7,14.4c0,7,4.5,11,15.4,13.7
		l6.4,1.6c8.7,2.1,11.8,4.5,11.8,9C369.7,51.8,363.9,55.9,356.2,55.9z"/>
	<path d="M392.1,31c0-4.4,0-9-0.1-12.9L408.4,60l0.1,0.2h6.1l16.4-42c-0.1,3.7-0.1,8.5-0.1,12.7v29.3h6.1V8.7h-8.3l-13.1,33.3
		c-1.7,4.4-2.8,7.6-3.9,10.4l-0.4-1.1c-1-2.8-2.4-6.5-3.8-10.2L394.6,8.7H386v51.5h6.1V31z"/>
	<rect x="450.6" y="8.7" width="6.2" height="51.5"/>
	<polygon points="479.8,60.3 486,60.3 486,14.5 500.7,14.5 500.7,8.7 465,8.7 465,14.5 479.8,14.5 	"/>
	<polygon points="515.1,37.1 541.5,37.1 541.5,60.3 547.7,60.3 547.7,8.7 541.5,8.7 541.5,31.4 515.1,31.4 515.1,8.7 508.9,8.7 
		508.9,60.3 515.1,60.3 	"/>
	<path d="M563.8,44.5l-0.1-0.3h-6.5l0,0.4c1.2,10.2,9.6,16.8,21.6,16.8c11.9,0,20.1-6.8,20.1-15.7c0-7-4.9-11.2-16.5-14.2l-6.3-1.6
		c-7.7-2-10.9-3.6-10.9-8c0-5.1,5.2-8.8,12.4-8.8s11.9,2.9,13.7,8.3l0.1,0.3h6.3l-0.1-0.5c-1.9-8.3-9.5-13.5-20-13.5
		S558.9,14,558.9,22c0,7,4.5,11,15.4,13.7l6.4,1.6c8.7,2.1,11.8,4.5,11.8,9c0,5.4-5.8,9.5-13.5,9.5l0,0
		C570.5,55.9,565.1,51.8,563.8,44.5z"/>
	<path d="M630.8,61.4c14.2,0,25.3-11.8,25.3-26.9c0-15.1-11.1-26.9-25.3-26.9c-14.2,0-25.3,11.6-25.3,26.9
		C605.5,49.8,616.4,61.4,630.8,61.4z M630.8,13.2c11.1,0,18.9,8.8,18.9,21.3s-7.6,21.3-18.9,21.3s-18.8-8.8-18.8-21.3
		S619.7,13.2,630.8,13.2z"/>
	<path d="M672.6,31c0-5.4-0.1-9.8-0.2-13.9l27.7,43l0.1,0.2h7.5V8.7h-6.2v28.9c0,5,0.1,9.7,0.2,14.2L674,8.9l-0.1-0.2h-7.5v51.5h6.2
		V31z"/>
	<rect x="721.2" y="8.7" width="6.2" height="51.5"/>
	<path d="M761.5,9L761.5,9l-0.1-0.2h-6.8l-20,51l-0.2,0.5h6.6l4.7-12.3h24.3l4.5,12.1l0.1,0.2h6.7L761.5,9z M747.7,42.4l5.2-13.5
		c1.9-4.9,3-7.9,5-13.1c1.9,5.2,2.8,7.7,4.8,12.9l5.2,13.7H747.7z"/>
	<path d="M794.5,31c0-5.4-0.1-9.8-0.2-13.9l27.7,43l0.1,0.2h7.5V8.7h-6.2v28.9c0,5,0.1,9.7,0.2,14.2L796,8.9l-0.1-0.2h-7.5v51.5h6.2
		V31z"/>
	<path d="M343.1,120.5h24.2l4.6,12.3h6.7l-19.8-51.3l-0.1-0.2h-6.8l-20.3,51.5h6.6L343.1,120.5z M350.3,101.5L350.3,101.5
		c1.9-4.9,3-7.9,5-13.1c1.8,4.9,2.8,7.6,4.8,12.9l5.2,13.7h-20.1L350.3,101.5z"/>
	<path d="M391.9,103.5c0-4.4,0-9-0.1-12.9l16.4,41.9l0.1,0.2h6.1l16.4-42c-0.1,3.7-0.1,8.5-0.1,12.7v29.3h6.1V81.2h-8.3l-13.1,33.3
		c-1.7,4.4-2.8,7.6-3.9,10.4l-0.4-1.1c-1-2.8-2.4-6.5-3.8-10.2l-12.9-32.4h-8.6v51.5h6.1V103.5z"/>
	<polygon points="484.7,127.2 456.7,127.2 456.7,109.1 480.4,109.1 480.4,103.4 456.7,103.4 456.7,86.8 484.4,86.8 484.4,81.3 
		450.5,81.3 450.5,132.8 484.7,132.8 	"/>
	<path d="M533.2,132.8L533.2,132.8l-17-22.6c9.2-1,15.1-6.6,15.1-14.3c0-9.1-7-14.7-18.3-14.7h-18.1v51.5h6.2v-22.3h8l16.5,22.3
		H533.2z M501.1,105.2L501.1,105.2l0-18.5h11.5c5.6,0,12.3,1.6,12.3,9.2c0,5.8-4.6,9.2-12.4,9.2H501.1z"/>
	<rect x="542" y="81.3" width="6.2" height="51.5"/>
	<path d="M558.7,107c0,15.8,10,26.9,24.3,26.9c13.3,0,20.1-8.8,21.8-16.4l0.1-0.5h-6.3l-0.1,0.3c-1.4,4.1-5.3,10.9-15.4,10.9
		c-10.6,0-18.1-8.7-18.1-21.1c0-12.4,7.3-21.1,18.1-21.1c10.2,0,14,6.8,15.4,10.9l0.1,0.3h6.3l-0.1-0.5c-1.7-7.6-8.5-16.4-21.8-16.4
		C568.9,80.2,558.7,91.4,558.7,107z"/>
	<path d="M647.5,132.8h6.7l-19.8-51.3l-0.1-0.2h-6.8l-20,51l-0.2,0.5h6.6l4.7-12.3h24.3l4.5,12.1l0,0L647.5,132.8z M620.8,115
		l5.2-13.5c1.9-4.9,3-7.9,5-13.1c1.9,5.2,2.8,7.7,4.8,12.9l5.2,13.7H620.8z"/>
	<path d="M696.4,110.1L696.4,110.1c0,5,0.1,9.7,0.2,14.2L669,81.4l-0.1-0.2h-7.5v51.5h6.2v-29.3c0-5.4-0.1-9.8-0.2-13.9l27.7,43
		l0.1,0.2h7.5V81.2h-6.2V110.1z"/>
	<polygon points="379.1,196.1 368.6,153.8 361.1,153.8 350.5,196.1 339.9,153.8 333.5,153.8 346.8,205 346.8,205.3 353.7,205.3 
		364.6,161.9 375.6,205.3 382.6,205.3 395.8,154.3 395.9,153.8 389.6,153.8 	"/>
	<path d="M426,152.7c-14.4,0-25.3,11.6-25.3,26.9c0,15.3,10.9,26.9,25.3,26.9c14.4,0,25.3-11.8,25.3-26.9
		C451.3,164.5,440.2,152.7,426,152.7z M426,200.8c-11.1,0-18.8-8.8-18.8-21.3c0-12.5,7.7-21.3,18.8-21.3c11.1,0,18.9,8.6,18.9,21.3
		C444.9,192.3,437.3,200.8,426,200.8z"/>
	<path d="M506.6,205.3L506.6,205.3l6.1,0v-51.5h-8.3l-13.1,33.3c-1.7,4.4-2.8,7.5-3.9,10.4l-0.4-1.1c-1-2.8-2.4-6.5-3.8-10.2
		l-12.9-32.4h-8.6v51.5h6.1V176c0-4.4,0-9-0.1-12.9l16.5,42.1h6.1l16.4-42c0,3-0.1,8-0.1,12.7V205.3z"/>
	<polygon points="560.5,199.8 532.5,199.8 532.5,181.6 556.2,181.6 556.2,176 532.5,176 532.5,159.3 560.2,159.3 560.2,153.8 
		526.2,153.8 526.2,205.3 560.5,205.3 	"/>
	<path d="M611.9,205.3v-51.5h-6.2v28.9c0,5,0.1,9.7,0.2,14.2l-27.6-42.9l-0.1-0.2h-7.5v51.5h6.2V176c0-5.4-0.1-9.8-0.3-13.9l27.7,43
		l0.1,0.2v0H611.9z"/>
	<path d="M663.5,176.5L663.5,176.5l-6.3-1.6c-7.7-2-10.9-3.6-10.9-8c0-5.1,5.2-8.8,12.4-8.8c7.2,0,11.9,2.9,13.7,8.3l0.1,0.3h6.3
		l-0.1-0.5c-1.9-8.3-9.5-13.5-20-13.5c-10.4,0-18.7,6.3-18.7,14.4c0,7,4.5,11,15.4,13.7l6.4,1.6c8.7,2.1,11.8,4.5,11.8,9
		c0,5.4-5.8,9.5-13.5,9.5c-8.5,0-13.9-4.1-15.2-11.4l-0.1-0.3h-6.5l0,0.4c1.2,10.2,9.6,16.8,21.6,16.8c11.9,0,20.1-6.8,20.1-15.7
		C680,183.7,675,179.4,663.5,176.5z"/>
	<polygon points="739.6,176.5 713.2,176.5 713.2,153.8 707,153.8 707,205.3 713.2,205.3 713.2,182.1 739.6,182.1 739.6,205.3 
		745.8,205.3 745.8,153.8 739.6,153.8 	"/>
	<rect x="759.3" y="153.8" width="6.2" height="51.5"/>
	<path d="M800.3,176.5L800.3,176.5L794,175c-7.7-2-10.9-3.6-10.9-8c0-5.1,5.2-8.8,12.4-8.8s11.9,2.9,13.7,8.3l0.1,0.3h6.3l-0.1-0.5
		c-1.9-8.3-9.5-13.5-20-13.5s-18.7,6.3-18.7,14.4c0,7,4.5,11,15.4,13.7l6.4,1.6c8.7,2.1,11.8,4.5,11.8,9c0,5.4-5.8,9.5-13.5,9.5
		c-8.5,0-13.9-4.1-15.2-11.4l-0.1-0.3h-6.5l0,0.4c1.2,10.2,9.6,16.8,21.6,16.8c11.9,0,20.1-6.8,20.1-15.7
		C816.8,183.7,811.9,179.4,800.3,176.5z"/>
	<polygon points="819.5,159.5 834.3,159.5 834.3,205.3 840.5,205.3 840.5,159.5 855.2,159.5 855.2,153.8 819.5,153.8 	"/>
	<path d="M882.8,152.7c-14.4,0-25.3,11.6-25.3,26.9c0,15.3,10.9,26.9,25.3,26.9c14.4,0,25.3-11.8,25.3-26.9
		C908.1,164.5,897,152.7,882.8,152.7z M882.8,200.8c-11.1,0-18.8-8.8-18.8-21.3c0-12.5,7.7-21.3,18.8-21.3
		c11.1,0,18.9,8.8,18.9,21.3C901.7,192.1,894.1,200.8,882.8,200.8z"/>
	<polygon points="954.8,168.4 954.8,168.4 954.8,168.5 	"/>
	<path d="M954.8,168.4c0-9.1-7-14.7-18.3-14.7h-18.1v51.5h6.2V183h8l16.3,22.2l0.1,0.2h7.6l-17-22.5
		C948.9,181.8,954.8,176.2,954.8,168.4z M924.7,177.7L924.7,177.7l0-18.5h11.5c5.6,0,12.3,1.6,12.3,9.2c0,5.8-4.6,9.2-12.4,9.2
		H924.7z"/>
	<path d="M993.1,153.8l-9.8,16.4c-1,1.8-1.9,3.3-2.6,4.5c-0.6,1.1-1.2,2.1-1.8,3.1c-0.7-1.3-1.5-2.5-2.4-4.1c-0.5-0.9-1.2-2-1.9-3.2
		l-10.1-16.7h-7.2l18.1,29.5v22h6.2v-21.9l18.2-29.7H993.1z"/>
	<path d="M368.1,259.6L368.1,259.6c-1.7,4.4-2.8,7.5-3.9,10.5l-0.4-1.1c-1-2.8-2.4-6.5-3.8-10.2l-12.8-32.2l-0.1-0.2h-8.6v51.5h6.1
		v-29.3c0-4.4,0-9-0.1-12.9l16.5,42.1h6.1l16.4-42c-0.1,3.7-0.1,8.5-0.1,12.7v29.3h6.1v-51.5h-8.3L368.1,259.6z"/>
	<path d="M433.6,258.2c0,9.5-4.5,15-12.4,15c-7.9,0-12.5-5.5-12.5-15v-31.9h-6.2v32.8c0,12.1,7.4,19.8,18.7,19.8
		c11.4,0,18.7-8,18.7-19.8v-32.8h-6.2V258.2z"/>
	<path d="M474.2,249L474.2,249l-6.3-1.6c-7.7-2-10.9-3.6-10.9-8c0-5.1,5.2-8.8,12.4-8.8s11.9,2.9,13.7,8.3l0.1,0.3h6.3l-0.1-0.5
		c-1.9-8.3-9.5-13.5-20-13.5c-10.4,0-18.7,6.3-18.7,14.4c0,7,4.5,11,15.4,13.7l6.4,1.6c8.7,2.1,11.8,4.5,11.8,9
		c0,5.4-5.8,9.5-13.5,9.5c-8.5,0-13.9-4.1-15.2-11.4l-0.1-0.3H449l0,0.4c1.2,10.2,9.6,16.8,21.6,16.8c11.9,0,20.1-6.8,20.1-15.7
		C490.6,256.2,485.7,252,474.2,249z"/>
	<polygon points="506.7,254.1 530.4,254.1 530.4,248.5 506.7,248.5 506.7,231.9 534.4,231.9 534.4,226.3 500.5,226.3 500.5,277.8 
		534.8,277.8 534.8,272.3 506.7,272.3 	"/>
	<path d="M575.6,258.2c0,9.5-4.5,15-12.4,15c-7.9,0-12.5-5.5-12.5-15v-31.9h-6.2v32.8c0,12.1,7.4,19.8,18.7,19.8
		c11.4,0,18.7-8,18.7-19.8v-32.8h-6.2V258.2z"/>
	<path d="M624.5,259.6L624.5,259.6c-1.7,4.4-2.8,7.5-3.9,10.4l-0.3-0.9c-1-2.8-2.4-6.6-3.9-10.4l-12.8-32.2l-0.1-0.2h-8.6v51.5h6.1
		v-29.3c0-4.4,0-9-0.1-12.9l16.4,41.9l0.1,0.2h6.1l16.4-42c0,3-0.1,8-0.1,12.7v29.3h6.1v-51.5h-8.3L624.5,259.6z"/>
	<path d="M620.5,159.2c2.5,2.1,4.9,4.4,7,7c2.1-2.5,4.4-4.9,7-7c-2.5-2.1-4.9-4.4-7-7C625.4,154.8,623,157.1,620.5,159.2z"/>
</g>
</svg>
